<?xml version="1.0" encoding="UTF-8"?>
<svg id="Layer_1" data-name="Layer 1" xmlns="http://www.w3.org/2000/svg" viewBox="0 0 2725.47 618">
  <defs>
    <style>
      .cls-1 {
        fill: #1b1b1b;
      }
    </style>
  </defs>
  <path class="cls-1" d="M518,308.44v-.5c-91.24-5.18-160.37-10.94-208.6-32.98,51.67-23.79,52.16-76.51-.15-174.96h-.49c-52.3,98.44-51.82,151.17-.15,174.96-48.23,22.05-117.37,27.8-208.6,32.98v.5c177.48,10.74,195.19,61.72,208.39,209.56h1.23c13.2-147.84,30.9-198.83,208.39-209.56Z"/>
  <g>
    <path class="cls-1" d="M1029.92,439.83V179.07c0-34.03,4.91-34.44,45.41-36.9v-6.97h-75.27l-147.68,309.96-159.54-309.96h-67.5v6.97c40.5,2.46,45.41,2.87,45.41,36.9v260.76c0,34.03-4.91,34.44-45.41,36.9v6.97h100.23v-6.97c-40.5-2.46-45.41-2.87-45.41-36.9V178.26l158.31,305.45h6.14l155.45-326.36v282.49c0,34.03-4.91,34.44-45.41,36.9v6.97h120.68v-6.97c-40.5-2.46-45.41-2.87-45.41-36.9h0Z"/>
    <path class="cls-1" d="M1291.74,438.21l-6.95-4.1c-18,27.88-38.05,41.82-65.46,41.82-48.27,0-81.41-43.87-81.41-106.19,0-4.92.4-10.25.82-15.17h155.86c-2.45-54.94-41.32-82.41-87.13-82.41-57.68,0-100.63,44.28-100.63,108.24,0,56.57,39.68,108.24,102.68,108.24,33.95,0,63.82-18.45,82.22-50.43h0ZM1206.65,280.35c35.59,0,56.45,22.55,56.45,49.2,0,10.66-4.91,16.81-16.77,16.81h-106.36c5.72-36.49,26.59-66.01,66.68-66.01h0Z"/>
    <path class="cls-1" d="M1571.12,476.75v-6.56c-30.27-.82-36-2.05-36-22.55V129.88l-62.59,9.84v6.56c30.27.82,36,2.05,36,22.55v147.19c-12.27-25.01-37.64-43.87-73.63-43.87-56.86,0-99.81,48.79-99.81,111.93s40.5,104.55,93.27,104.55c34.37,0,64.23-18.86,80.18-52.89v50.84l62.59-9.84ZM1436.13,473.46c-42.96,0-69.95-39.77-69.95-93.07s25.77-98.4,73.23-98.4c39.27,0,71.99,31.16,71.99,92.25s-27.41,99.22-75.27,99.22h0Z"/>
    <path class="cls-1" d="M1643.12,169.65c11.46,0,20.45-9.02,20.45-20.5s-9-20.5-20.45-20.5-20.46,9.02-20.46,20.5,9,20.5,20.46,20.5Z"/>
    <path class="cls-1" d="M1657.45,475.5v-201.31l-62.59,9.84v6.56c30.27.82,36,2.05,36,22.55v162.36l-36,.41v7.79h98.59v-7.79l-36-.41h0Z"/>
    <path class="cls-1" d="M1902.86,438.2l-6.95-4.1c-18.41,29.11-38.05,41.82-64.23,41.82-47.45,0-79.77-43.46-79.77-101.68,0-52.07,20.86-93.89,68.72-93.89,33.13,0,52.77,20.09,55.64,56.58,2.45.82,4.91.82,6.95.82,10.63,0,17.18-7.79,17.18-17.22,0-21.73-29.45-48.38-76.91-48.38-60.55,0-102.27,45.1-102.27,109.47,0,55.35,38.86,107.01,100.64,107.01,32.73,0,62.18-17.22,80.99-50.43h0Z"/>
    <path class="cls-1" d="M2013,480.61V142.8h56.04v-8.01h-76.91v353.83h76.91v-8.01h-56.04Z"/>
    <path class="cls-1" d="M2159.74,453.09c-1.81,6.81-2.13,11.15-1.21,13.99.85,2.63,2.88,4.27,6.85,5.35,3.54.96,8.35,1.4,14.64,1.76l2.79.15.87.04.38.78v.02s.17.31.17.31v7.06h-73.06v-8.13l1.42-.07c13.24-.61,19.82-1.48,25.32-7.14,2.81-2.89,5.4-7.1,8.34-13.39,2.94-6.29,6.17-14.54,10.3-25.43l74.06-195.69c1.8-4.83,6.71-18.76,23.12-18.76,6.16,0,11.17,1.96,15.2,5.42,3.75,3.22,6.57,7.67,8.72,12.88l.42,1.05h0s83.24,215.32,83.24,215.32c2.3,5.84,4.08,10.26,5.87,13.68,1.78,3.4,3.5,5.68,5.62,7.3,2.11,1.61,4.72,2.66,8.45,3.37,3.73.71,8.46,1.42,14.78,1.38,7.57-.05,13.37-.82,17.87-1.49,4.54-.68,7.54-1.64,9.59-3.16,1.98-1.47,3.24-3.59,4.01-6.99.78-3.46,1.01-8.1,1.01-14.47v-195.07c0-6.36-.23-11.01-1.01-14.47-.76-3.41-2.03-5.53-4.01-7-2.05-1.52-5.05-2.49-9.59-3.16-4.53-.67-10.36-1.04-17.96-1.5l-1.4-.08v-8.11h93.26v8.11l-1.4.08c-7.6.46-13.43.82-17.96,1.5-4.54.68-7.54,1.64-9.59,3.16-1.98,1.47-3.24,3.59-4.01,7-.78,3.46-1.01,8.1-1.01,14.47v195.07c0,6.37.23,11.01,1.01,14.47.76,3.4,2.03,5.52,4.01,6.99,2.05,1.52,5.05,2.48,9.59,3.16,4.53.67,10.36,1.04,17.96,1.5l1.4.09v8.11h-178.64v-8.17l1.46-.03c7.48-.15,13.21-.57,17.5-1.4,4.32-.83,6.96-2.04,8.48-3.6,1.44-1.48,2.06-3.47,1.83-6.42-.23-3.01-1.33-6.83-3.16-11.72l-23.51-61.91h-128.92l-13.72,36.45h0M2247,228.56c-1.38,0-2.36.49-3.24,1.49-.92,1.05-1.74,2.67-2.61,4.97h0s-.1.26-.1.26l-54.63,144.28h121.46l-54.93-143.98c-.81-1.96-1.41-3.7-2.35-5.05-.86-1.23-1.9-1.97-3.6-1.97Z"/>
    <path class="cls-1" d="M2548.43,134.79v8.01h56.04v337.81h-56.04v8.01h76.91V134.79h-76.91Z"/>
  </g>
</svg>